# xmcd
#
# Track frame offsets: 
#        151
#        29263
#        71315
#        106555
#        140313
#        182069
#        230251
#        273519
#
# Disc length: 3971 seconds
#
# Revision: 0
# Processed by: cddbd v1.5.2PL0 Copyright (c) Steve Scherf et al.
# Submitted via: ExactAudioCopyFreeDBPlugin 1.0
#
DISCID=5f0f8108
DTITLE=Mochoko Mapefane and Friends - Live 28.10.2000
DYEAR=2000
DGENRE=Blues
TTITLE0=Hallo
TTITLE1=Bumping on sunset
TTITLE2=Bo Mapefane
TTITLE3=Monoena (Zeigefinger)
TTITLE4=Prince
TTITLE5=Tzogongoena
TTITLE6=Ntjo ntjo
TTITLE7=Le Khokhoma (Schopfheim groove)
EXTD=
EXTT0=
EXTT1=
EXTT2=
EXTT3=
EXTT4=
EXTT5=
EXTT6=
EXTT7=
PLAYORDER=
